<?xml version="1.0" encoding="utf-8"?>
<svg viewBox="0 0 200 270" xmlns="http://www.w3.org/2000/svg" xmlns:bx="https://boxy-svg.com">
  <defs>
    <bx:grid x="0" y="0" width="10" height="10"/>
  </defs>
  <text style="fill: rgb(51, 51, 51); font-size: 8px; white-space: pre; text-anchor: end;" x="45.57" y="25.666">user</text>
  <text style="fill: rgb(51, 51, 51); font-size: 8px; white-space: pre;" x="133.663" y="25.666">administrator</text>
  <line style="stroke-linecap: round; stroke: rgb(128, 128, 128);" x1="130" y1="100" x2="150" y2="100"/>
  <line style="stroke: rgb(0, 0, 0); stroke-width: 2px; stroke-linecap: round;" x1="80" y1="160" x2="220" y2="160" transform="matrix(0, -1, 1, 0, -10, 310)"/>
  <line style="stroke-linecap: round; stroke: rgb(128, 128, 128);" x1="129.11" y1="160" x2="149.11" y2="160"/>
  <line style="stroke-linecap: round; stroke: rgb(128, 128, 128);" x1="129.11" y1="220" x2="149.11" y2="220"/>
  <line style="stroke-linecap: round; stroke: rgb(128, 128, 128);" x1="80" y1="80" x2="100" y2="80" transform="matrix(0, -1, 1, 0, 10, 170)"/>
  <line style="stroke-linecap: round; stroke: rgb(128, 128, 128);" x1="80" y1="120" x2="100" y2="120" transform="matrix(0, -1, 1, 0, -30, 210)"/>
  <rect x="50" y="90" width="80" height="20" style="fill: rgb(216, 216, 216);"/>
  <text style="fill: rgb(51, 51, 51); font-size: 8px; white-space: pre; text-anchor: end;" x="102.453" y="102.771">firewall</text>
  <line style="stroke-linecap: round; stroke: rgb(128, 128, 128);" x1="80" y1="140" x2="100" y2="140" transform="matrix(0, -1, 1, 0, -50, 230)"/>
  <line style="stroke: rgb(0, 0, 0); stroke-width: 2px; stroke-linecap: round;" x1="50" y1="130" x2="130" y2="130"/>
  <line style="stroke-linecap: round; stroke: rgb(128, 128, 128);" x1="80" y1="180" x2="100" y2="180" transform="matrix(0, -1, 1, 0, -90, 270)"/>
  <rect x="50" y="150" width="80" height="20" style="fill: rgb(216, 216, 216);"/>
  <text style="fill: rgb(51, 51, 51); font-size: 8px; white-space: pre; text-anchor: end;" x="109.133" y="162.773">application</text>
  <line style="stroke-linecap: round; stroke: rgb(128, 128, 128);" x1="80" y1="200" x2="100" y2="200" transform="matrix(0, -1, 1, 0, -110, 290)"/>
  <line style="stroke: rgb(0, 0, 0); stroke-width: 2px; stroke-linecap: round;" x1="50" y1="190" x2="130" y2="190"/>
  <rect x="50" y="210" width="80" height="20" style="fill: rgb(216, 216, 216);"/>
  <text style="fill: rgb(51, 51, 51); font-size: 8px; white-space: pre; text-anchor: end;" x="106.469" y="222.771">database</text>
  <line style="stroke-linecap: round; stroke: rgb(128, 128, 128);" x1="100" y1="50" x2="140" y2="50" transform="matrix(0, -1, 1, 0, 70, 170)"/>
  <g transform="matrix(0.011669, 0, 0, 0.011669, 109.109329, 10.000005)">
    <g id="g-1">
      <path class="fil0" d="m1714 2044c0-590-384-1068-857-1068s-857 478-857 1068c0 92 384 167 857 167s857-75 857-167zm-857-2044c258 0 467 209 467 467s-209 467-467 467-467-209-467-467 209-467 467-467z"/>
    </g>
  </g>
  <line style="stroke-linecap: round; stroke: rgb(128, 128, 128);" x1="40" y1="50" x2="80" y2="50" transform="matrix(0, -1, 1, 0, 10, 110)"/>
  <g transform="matrix(0.011669, 0, 0, 0.011669, 49.999279, 10)">
    <g id="Layer_x0020_1">
      <path class="fil0" d="m1714 2044c0-590-384-1068-857-1068s-857 478-857 1068c0 92 384 167 857 167s857-75 857-167zm-857-2044c258 0 467 209 467 467s-209 467-467 467-467-209-467-467 209-467 467-467z"/>
    </g>
  </g>
  <line style="stroke: rgb(0, 0, 0); stroke-width: 2px; stroke-linecap: round;" x1="50" y1="70" x2="130" y2="70"/>
  <text style="fill: rgb(51, 51, 51); font-size: 8px; white-space: pre;" x="153.663" y="97.209">oam</text>
  <text style="fill: rgb(51, 51, 51); font-size: 8px; white-space: pre; text-anchor: end;" x="40.007" y="72.776">pub</text>
  <text style="fill: rgb(51, 51, 51); font-size: 8px; white-space: pre; text-anchor: end;" x="40.007" y="132.775">ext</text>
  <text style="fill: rgb(51, 51, 51); font-size: 8px; white-space: pre; text-anchor: end;" x="40.679" y="192.775">int</text>
  <rect y="50" width="180" height="210" style="fill: none; stroke: rgb(192, 192, 192);" x="10"/>
  <text style="fill: rgb(51, 51, 51); font-size: 8px; white-space: pre; text-anchor: middle;" x="95.008" y="252.089">tenant</text>
</svg>